<mxfile host="app.diagrams.net" agent="Mozilla/5.0 (Windows NT 10.0; Win64; x64) AppleWebKit/537.36 (KHTML, like Gecko) Chrome/131.0.0.0 Safari/537.36" version="25.0.3">
  <diagram id="C5RBs43oDa-KdzZeNtuy" name="202406 WCS Control 흐름도">
    <mxGraphModel dx="1928" dy="759" grid="1" gridSize="10" guides="1" tooltips="1" connect="1" arrows="1" fold="1" page="1" pageScale="1" pageWidth="827" pageHeight="1169" math="0" shadow="0">
      <root>
        <mxCell id="WIyWlLk6GJQsqaUBKTNV-0" />
        <mxCell id="WIyWlLk6GJQsqaUBKTNV-1" parent="WIyWlLk6GJQsqaUBKTNV-0" />
        <mxCell id="g9gUmK_ryA9LrA25yJjy-5" value="" style="rounded=0;whiteSpace=wrap;html=1;labelBorderColor=#1f0fff;strokeColor=#4f4f4f;" vertex="1" parent="WIyWlLk6GJQsqaUBKTNV-1">
          <mxGeometry x="-160" y="990" width="810" height="540" as="geometry" />
        </mxCell>
        <mxCell id="WIyWlLk6GJQsqaUBKTNV-2" value="" style="rounded=0;html=1;jettySize=auto;orthogonalLoop=1;fontSize=11;endArrow=block;endFill=0;endSize=8;strokeWidth=1;shadow=0;labelBackgroundColor=none;edgeStyle=orthogonalEdgeStyle;" parent="WIyWlLk6GJQsqaUBKTNV-1" source="WIyWlLk6GJQsqaUBKTNV-3" target="WIyWlLk6GJQsqaUBKTNV-6" edge="1">
          <mxGeometry relative="1" as="geometry" />
        </mxCell>
        <mxCell id="WIyWlLk6GJQsqaUBKTNV-3" value="WCS" style="rounded=1;whiteSpace=wrap;html=1;fontSize=12;glass=0;strokeWidth=1;shadow=0;" parent="WIyWlLk6GJQsqaUBKTNV-1" vertex="1">
          <mxGeometry x="160" y="80" width="120" height="40" as="geometry" />
        </mxCell>
        <mxCell id="WIyWlLk6GJQsqaUBKTNV-4" value="Yes" style="rounded=0;html=1;jettySize=auto;orthogonalLoop=1;fontSize=11;endArrow=block;endFill=0;endSize=8;strokeWidth=1;shadow=0;labelBackgroundColor=none;edgeStyle=orthogonalEdgeStyle;" parent="WIyWlLk6GJQsqaUBKTNV-1" source="WIyWlLk6GJQsqaUBKTNV-6" target="WIyWlLk6GJQsqaUBKTNV-10" edge="1">
          <mxGeometry y="20" relative="1" as="geometry">
            <mxPoint as="offset" />
          </mxGeometry>
        </mxCell>
        <mxCell id="WIyWlLk6GJQsqaUBKTNV-5" value="No" style="edgeStyle=orthogonalEdgeStyle;rounded=0;html=1;jettySize=auto;orthogonalLoop=1;fontSize=11;endArrow=block;endFill=0;endSize=8;strokeWidth=1;shadow=0;labelBackgroundColor=none;" parent="WIyWlLk6GJQsqaUBKTNV-1" source="WIyWlLk6GJQsqaUBKTNV-6" target="WIyWlLk6GJQsqaUBKTNV-7" edge="1">
          <mxGeometry y="10" relative="1" as="geometry">
            <mxPoint as="offset" />
          </mxGeometry>
        </mxCell>
        <mxCell id="WIyWlLk6GJQsqaUBKTNV-6" value="DB Connection" style="rhombus;whiteSpace=wrap;html=1;shadow=0;fontFamily=Helvetica;fontSize=12;align=center;strokeWidth=1;spacing=6;spacingTop=-4;" parent="WIyWlLk6GJQsqaUBKTNV-1" vertex="1">
          <mxGeometry x="170" y="170" width="100" height="80" as="geometry" />
        </mxCell>
        <mxCell id="WIyWlLk6GJQsqaUBKTNV-7" value="Not enter the loop" style="rounded=1;whiteSpace=wrap;html=1;fontSize=12;glass=0;strokeWidth=1;shadow=0;" parent="WIyWlLk6GJQsqaUBKTNV-1" vertex="1">
          <mxGeometry x="320" y="190" width="120" height="40" as="geometry" />
        </mxCell>
        <mxCell id="WIyWlLk6GJQsqaUBKTNV-8" value="Yes" style="rounded=0;html=1;jettySize=auto;orthogonalLoop=1;fontSize=11;endArrow=block;endFill=0;endSize=8;strokeWidth=1;shadow=0;labelBackgroundColor=none;edgeStyle=orthogonalEdgeStyle;" parent="WIyWlLk6GJQsqaUBKTNV-1" source="WIyWlLk6GJQsqaUBKTNV-10" edge="1">
          <mxGeometry x="0.3333" y="20" relative="1" as="geometry">
            <mxPoint as="offset" />
            <mxPoint x="220" y="430" as="targetPoint" />
          </mxGeometry>
        </mxCell>
        <mxCell id="WIyWlLk6GJQsqaUBKTNV-9" value="No" style="edgeStyle=orthogonalEdgeStyle;rounded=0;html=1;jettySize=auto;orthogonalLoop=1;fontSize=11;endArrow=block;endFill=0;endSize=8;strokeWidth=1;shadow=0;labelBackgroundColor=none;" parent="WIyWlLk6GJQsqaUBKTNV-1" source="WIyWlLk6GJQsqaUBKTNV-10" target="WIyWlLk6GJQsqaUBKTNV-12" edge="1">
          <mxGeometry y="10" relative="1" as="geometry">
            <mxPoint as="offset" />
          </mxGeometry>
        </mxCell>
        <mxCell id="WIyWlLk6GJQsqaUBKTNV-10" value="WHS Enable" style="rhombus;whiteSpace=wrap;html=1;shadow=0;fontFamily=Helvetica;fontSize=12;align=center;strokeWidth=1;spacing=6;spacingTop=-4;" parent="WIyWlLk6GJQsqaUBKTNV-1" vertex="1">
          <mxGeometry x="170" y="290" width="100" height="80" as="geometry" />
        </mxCell>
        <mxCell id="WIyWlLk6GJQsqaUBKTNV-12" value="Not enter the loop" style="rounded=1;whiteSpace=wrap;html=1;fontSize=12;glass=0;strokeWidth=1;shadow=0;" parent="WIyWlLk6GJQsqaUBKTNV-1" vertex="1">
          <mxGeometry x="320" y="310" width="120" height="40" as="geometry" />
        </mxCell>
        <mxCell id="Kg2CsayfjUhLYFpUABhE-1" value="" style="edgeStyle=orthogonalEdgeStyle;rounded=0;orthogonalLoop=1;jettySize=auto;html=1;exitX=0.5;exitY=0;exitDx=0;exitDy=0;exitPerimeter=0;" parent="WIyWlLk6GJQsqaUBKTNV-1" source="Kg2CsayfjUhLYFpUABhE-0" target="WIyWlLk6GJQsqaUBKTNV-10" edge="1">
          <mxGeometry relative="1" as="geometry" />
        </mxCell>
        <mxCell id="Kg2CsayfjUhLYFpUABhE-5" value="" style="edgeStyle=orthogonalEdgeStyle;rounded=0;orthogonalLoop=1;jettySize=auto;html=1;exitX=0.457;exitY=0.967;exitDx=0;exitDy=0;exitPerimeter=0;" parent="WIyWlLk6GJQsqaUBKTNV-1" source="Kg2CsayfjUhLYFpUABhE-0" target="Kg2CsayfjUhLYFpUABhE-4" edge="1">
          <mxGeometry relative="1" as="geometry">
            <Array as="points">
              <mxPoint x="214" y="520" />
            </Array>
          </mxGeometry>
        </mxCell>
        <mxCell id="5Jy3Hu0_u8CA1WoD8tqa-11" value="" style="edgeStyle=orthogonalEdgeStyle;rounded=0;orthogonalLoop=1;jettySize=auto;html=1;" parent="WIyWlLk6GJQsqaUBKTNV-1" source="Kg2CsayfjUhLYFpUABhE-0" target="5Jy3Hu0_u8CA1WoD8tqa-10" edge="1">
          <mxGeometry relative="1" as="geometry">
            <Array as="points">
              <mxPoint x="210" y="685" />
            </Array>
          </mxGeometry>
        </mxCell>
        <mxCell id="Kg2CsayfjUhLYFpUABhE-0" value="i=1 ; i&amp;lt;= u_max_whs;i++" style="strokeWidth=1;html=1;shape=mxgraph.flowchart.loop_limit;whiteSpace=wrap;" parent="WIyWlLk6GJQsqaUBKTNV-1" vertex="1">
          <mxGeometry x="150" y="430" width="140" height="60" as="geometry" />
        </mxCell>
        <mxCell id="Kg2CsayfjUhLYFpUABhE-8" value="" style="edgeStyle=orthogonalEdgeStyle;rounded=0;orthogonalLoop=1;jettySize=auto;html=1;" parent="WIyWlLk6GJQsqaUBKTNV-1" source="Kg2CsayfjUhLYFpUABhE-4" target="Kg2CsayfjUhLYFpUABhE-7" edge="1">
          <mxGeometry relative="1" as="geometry">
            <Array as="points">
              <mxPoint x="368" y="460" />
            </Array>
          </mxGeometry>
        </mxCell>
        <mxCell id="Kg2CsayfjUhLYFpUABhE-10" value="" style="edgeStyle=orthogonalEdgeStyle;rounded=0;orthogonalLoop=1;jettySize=auto;html=1;" parent="WIyWlLk6GJQsqaUBKTNV-1" source="Kg2CsayfjUhLYFpUABhE-4" target="Kg2CsayfjUhLYFpUABhE-9" edge="1">
          <mxGeometry relative="1" as="geometry" />
        </mxCell>
        <mxCell id="Kg2CsayfjUhLYFpUABhE-12" value="" style="edgeStyle=orthogonalEdgeStyle;rounded=0;orthogonalLoop=1;jettySize=auto;html=1;" parent="WIyWlLk6GJQsqaUBKTNV-1" source="Kg2CsayfjUhLYFpUABhE-4" target="Kg2CsayfjUhLYFpUABhE-11" edge="1">
          <mxGeometry relative="1" as="geometry">
            <Array as="points">
              <mxPoint x="370" y="580" />
            </Array>
          </mxGeometry>
        </mxCell>
        <mxCell id="Kg2CsayfjUhLYFpUABhE-4" value="cnv_control" style="rounded=1;whiteSpace=wrap;html=1;strokeWidth=1;" parent="WIyWlLk6GJQsqaUBKTNV-1" vertex="1">
          <mxGeometry x="330" y="500" width="76" height="40" as="geometry" />
        </mxCell>
        <mxCell id="Kg2CsayfjUhLYFpUABhE-7" value="cnv_start" style="rounded=1;whiteSpace=wrap;html=1;strokeWidth=1;" parent="WIyWlLk6GJQsqaUBKTNV-1" vertex="1">
          <mxGeometry x="482" y="445" width="110" height="30" as="geometry" />
        </mxCell>
        <mxCell id="Kg2CsayfjUhLYFpUABhE-9" value="cnv_sc_unload" style="whiteSpace=wrap;html=1;rounded=1;strokeWidth=1;" parent="WIyWlLk6GJQsqaUBKTNV-1" vertex="1">
          <mxGeometry x="482" y="502.5" width="110" height="35" as="geometry" />
        </mxCell>
        <mxCell id="Kg2CsayfjUhLYFpUABhE-11" value="cnv_complete" style="whiteSpace=wrap;html=1;rounded=1;strokeWidth=1;" parent="WIyWlLk6GJQsqaUBKTNV-1" vertex="1">
          <mxGeometry x="482" y="560" width="110" height="40" as="geometry" />
        </mxCell>
        <mxCell id="5Jy3Hu0_u8CA1WoD8tqa-2" value="" style="edgeStyle=orthogonalEdgeStyle;rounded=0;orthogonalLoop=1;jettySize=auto;html=1;" parent="WIyWlLk6GJQsqaUBKTNV-1" source="5Jy3Hu0_u8CA1WoD8tqa-0" target="5Jy3Hu0_u8CA1WoD8tqa-1" edge="1">
          <mxGeometry relative="1" as="geometry" />
        </mxCell>
        <mxCell id="5Jy3Hu0_u8CA1WoD8tqa-0" value="MES 입고 지시(자동) or 화면 입고지시(수동)" style="text;html=1;align=center;verticalAlign=middle;whiteSpace=wrap;rounded=0;" parent="WIyWlLk6GJQsqaUBKTNV-1" vertex="1">
          <mxGeometry x="600" y="445" width="260" height="30" as="geometry" />
        </mxCell>
        <mxCell id="5Jy3Hu0_u8CA1WoD8tqa-1" value="P_EXEC_STORE_IN" style="text;html=1;align=center;verticalAlign=middle;whiteSpace=wrap;rounded=0;" parent="WIyWlLk6GJQsqaUBKTNV-1" vertex="1">
          <mxGeometry x="940" y="445" width="260" height="30" as="geometry" />
        </mxCell>
        <mxCell id="5Jy3Hu0_u8CA1WoD8tqa-3" value="" style="edgeStyle=orthogonalEdgeStyle;rounded=0;orthogonalLoop=1;jettySize=auto;html=1;" parent="WIyWlLk6GJQsqaUBKTNV-1" source="5Jy3Hu0_u8CA1WoD8tqa-4" target="5Jy3Hu0_u8CA1WoD8tqa-5" edge="1">
          <mxGeometry relative="1" as="geometry" />
        </mxCell>
        <mxCell id="5Jy3Hu0_u8CA1WoD8tqa-4" value="화물 Unloading 후 Data Write" style="text;html=1;align=center;verticalAlign=middle;whiteSpace=wrap;rounded=0;" parent="WIyWlLk6GJQsqaUBKTNV-1" vertex="1">
          <mxGeometry x="600" y="505" width="260" height="30" as="geometry" />
        </mxCell>
        <mxCell id="5Jy3Hu0_u8CA1WoD8tqa-5" value="P_STORED_OUT" style="text;html=1;align=center;verticalAlign=middle;whiteSpace=wrap;rounded=0;" parent="WIyWlLk6GJQsqaUBKTNV-1" vertex="1">
          <mxGeometry x="940" y="505" width="260" height="30" as="geometry" />
        </mxCell>
        <mxCell id="5Jy3Hu0_u8CA1WoD8tqa-7" value="" style="edgeStyle=orthogonalEdgeStyle;rounded=0;orthogonalLoop=1;jettySize=auto;html=1;" parent="WIyWlLk6GJQsqaUBKTNV-1" source="5Jy3Hu0_u8CA1WoD8tqa-8" target="5Jy3Hu0_u8CA1WoD8tqa-9" edge="1">
          <mxGeometry relative="1" as="geometry" />
        </mxCell>
        <mxCell id="5Jy3Hu0_u8CA1WoD8tqa-8" value="작업 완료" style="text;html=1;align=center;verticalAlign=middle;whiteSpace=wrap;rounded=0;" parent="WIyWlLk6GJQsqaUBKTNV-1" vertex="1">
          <mxGeometry x="600" y="565" width="260" height="30" as="geometry" />
        </mxCell>
        <mxCell id="5Jy3Hu0_u8CA1WoD8tqa-9" value="P_UPDATE_WORK_STATUS" style="text;html=1;align=center;verticalAlign=middle;whiteSpace=wrap;rounded=0;" parent="WIyWlLk6GJQsqaUBKTNV-1" vertex="1">
          <mxGeometry x="940" y="565" width="260" height="30" as="geometry" />
        </mxCell>
        <mxCell id="5Jy3Hu0_u8CA1WoD8tqa-14" value="" style="edgeStyle=orthogonalEdgeStyle;rounded=0;orthogonalLoop=1;jettySize=auto;html=1;" parent="WIyWlLk6GJQsqaUBKTNV-1" source="5Jy3Hu0_u8CA1WoD8tqa-10" target="5Jy3Hu0_u8CA1WoD8tqa-13" edge="1">
          <mxGeometry relative="1" as="geometry" />
        </mxCell>
        <mxCell id="5Jy3Hu0_u8CA1WoD8tqa-16" value="" style="edgeStyle=orthogonalEdgeStyle;rounded=0;orthogonalLoop=1;jettySize=auto;html=1;entryX=0;entryY=0.5;entryDx=0;entryDy=0;" parent="WIyWlLk6GJQsqaUBKTNV-1" source="5Jy3Hu0_u8CA1WoD8tqa-10" target="5Jy3Hu0_u8CA1WoD8tqa-15" edge="1">
          <mxGeometry relative="1" as="geometry">
            <Array as="points">
              <mxPoint x="370" y="750" />
            </Array>
          </mxGeometry>
        </mxCell>
        <mxCell id="5Jy3Hu0_u8CA1WoD8tqa-10" value="agv_control" style="rounded=1;whiteSpace=wrap;html=1;strokeWidth=1;" parent="WIyWlLk6GJQsqaUBKTNV-1" vertex="1">
          <mxGeometry x="330" y="660" width="80" height="40" as="geometry" />
        </mxCell>
        <mxCell id="5Jy3Hu0_u8CA1WoD8tqa-13" value="agv_load" style="rounded=1;whiteSpace=wrap;html=1;strokeWidth=1;" parent="WIyWlLk6GJQsqaUBKTNV-1" vertex="1">
          <mxGeometry x="490" y="660" width="80" height="40" as="geometry" />
        </mxCell>
        <mxCell id="5Jy3Hu0_u8CA1WoD8tqa-15" value="agv_unload_node_search" style="rounded=1;whiteSpace=wrap;html=1;strokeWidth=1;" parent="WIyWlLk6GJQsqaUBKTNV-1" vertex="1">
          <mxGeometry x="490" y="730" width="150" height="40" as="geometry" />
        </mxCell>
        <mxCell id="5Jy3Hu0_u8CA1WoD8tqa-21" value="" style="edgeStyle=orthogonalEdgeStyle;rounded=0;orthogonalLoop=1;jettySize=auto;html=1;" parent="WIyWlLk6GJQsqaUBKTNV-1" source="Kg2CsayfjUhLYFpUABhE-0" target="5Jy3Hu0_u8CA1WoD8tqa-22" edge="1">
          <mxGeometry relative="1" as="geometry">
            <mxPoint x="210" y="630" as="sourcePoint" />
            <Array as="points">
              <mxPoint x="210" y="825" />
            </Array>
          </mxGeometry>
        </mxCell>
        <mxCell id="5Jy3Hu0_u8CA1WoD8tqa-24" value="" style="edgeStyle=orthogonalEdgeStyle;rounded=0;orthogonalLoop=1;jettySize=auto;html=1;" parent="WIyWlLk6GJQsqaUBKTNV-1" source="5Jy3Hu0_u8CA1WoD8tqa-22" target="5Jy3Hu0_u8CA1WoD8tqa-23" edge="1">
          <mxGeometry relative="1" as="geometry" />
        </mxCell>
        <mxCell id="5Jy3Hu0_u8CA1WoD8tqa-26" value="" style="edgeStyle=orthogonalEdgeStyle;rounded=0;orthogonalLoop=1;jettySize=auto;html=1;" parent="WIyWlLk6GJQsqaUBKTNV-1" source="5Jy3Hu0_u8CA1WoD8tqa-22" target="5Jy3Hu0_u8CA1WoD8tqa-25" edge="1">
          <mxGeometry relative="1" as="geometry">
            <Array as="points">
              <mxPoint x="370" y="910" />
            </Array>
          </mxGeometry>
        </mxCell>
        <mxCell id="5Jy3Hu0_u8CA1WoD8tqa-22" value="stc_control" style="rounded=1;whiteSpace=wrap;html=1;strokeWidth=1;" parent="WIyWlLk6GJQsqaUBKTNV-1" vertex="1">
          <mxGeometry x="330" y="800" width="80" height="40" as="geometry" />
        </mxCell>
        <mxCell id="5Jy3Hu0_u8CA1WoD8tqa-23" value="출고우선작업" style="rounded=1;whiteSpace=wrap;html=1;strokeWidth=1;" parent="WIyWlLk6GJQsqaUBKTNV-1" vertex="1">
          <mxGeometry x="490" y="800" width="80" height="40" as="geometry" />
        </mxCell>
        <mxCell id="5Jy3Hu0_u8CA1WoD8tqa-25" value="입고우선작업" style="rounded=1;whiteSpace=wrap;html=1;strokeWidth=1;" parent="WIyWlLk6GJQsqaUBKTNV-1" vertex="1">
          <mxGeometry x="490" y="890" width="80" height="40" as="geometry" />
        </mxCell>
        <mxCell id="5Jy3Hu0_u8CA1WoD8tqa-27" value="stc_request_store_out" style="text;html=1;align=center;verticalAlign=middle;whiteSpace=wrap;rounded=0;" parent="WIyWlLk6GJQsqaUBKTNV-1" vertex="1">
          <mxGeometry x="592" y="805" width="260" height="30" as="geometry" />
        </mxCell>
        <mxCell id="5Jy3Hu0_u8CA1WoD8tqa-28" value="stc_request_store_in" style="text;html=1;align=center;verticalAlign=middle;whiteSpace=wrap;rounded=0;" parent="WIyWlLk6GJQsqaUBKTNV-1" vertex="1">
          <mxGeometry x="600" y="890" width="260" height="30" as="geometry" />
        </mxCell>
        <mxCell id="5Jy3Hu0_u8CA1WoD8tqa-38" value="" style="rounded=0;html=1;jettySize=auto;orthogonalLoop=1;fontSize=11;endArrow=block;endFill=0;endSize=8;strokeWidth=1;shadow=0;labelBackgroundColor=none;edgeStyle=orthogonalEdgeStyle;" parent="WIyWlLk6GJQsqaUBKTNV-1" source="5Jy3Hu0_u8CA1WoD8tqa-39" target="5Jy3Hu0_u8CA1WoD8tqa-42" edge="1">
          <mxGeometry relative="1" as="geometry" />
        </mxCell>
        <mxCell id="5Jy3Hu0_u8CA1WoD8tqa-39" value="WCS" style="rounded=1;whiteSpace=wrap;html=1;fontSize=12;glass=0;strokeWidth=1;shadow=0;" parent="WIyWlLk6GJQsqaUBKTNV-1" vertex="1">
          <mxGeometry x="-740" y="690" width="120" height="40" as="geometry" />
        </mxCell>
        <mxCell id="5Jy3Hu0_u8CA1WoD8tqa-40" value="Yes" style="rounded=0;html=1;jettySize=auto;orthogonalLoop=1;fontSize=11;endArrow=block;endFill=0;endSize=8;strokeWidth=1;shadow=0;labelBackgroundColor=none;edgeStyle=orthogonalEdgeStyle;" parent="WIyWlLk6GJQsqaUBKTNV-1" source="5Jy3Hu0_u8CA1WoD8tqa-42" target="5Jy3Hu0_u8CA1WoD8tqa-45" edge="1">
          <mxGeometry y="20" relative="1" as="geometry">
            <mxPoint as="offset" />
          </mxGeometry>
        </mxCell>
        <mxCell id="5Jy3Hu0_u8CA1WoD8tqa-41" value="No" style="edgeStyle=orthogonalEdgeStyle;rounded=0;html=1;jettySize=auto;orthogonalLoop=1;fontSize=11;endArrow=block;endFill=0;endSize=8;strokeWidth=1;shadow=0;labelBackgroundColor=none;" parent="WIyWlLk6GJQsqaUBKTNV-1" source="5Jy3Hu0_u8CA1WoD8tqa-42" target="5Jy3Hu0_u8CA1WoD8tqa-43" edge="1">
          <mxGeometry y="10" relative="1" as="geometry">
            <mxPoint as="offset" />
          </mxGeometry>
        </mxCell>
        <mxCell id="5Jy3Hu0_u8CA1WoD8tqa-42" value="DB Connection" style="rhombus;whiteSpace=wrap;html=1;shadow=0;fontFamily=Helvetica;fontSize=12;align=center;strokeWidth=1;spacing=6;spacingTop=-4;" parent="WIyWlLk6GJQsqaUBKTNV-1" vertex="1">
          <mxGeometry x="-730" y="780" width="100" height="80" as="geometry" />
        </mxCell>
        <mxCell id="5Jy3Hu0_u8CA1WoD8tqa-43" value="Not enter the loop" style="rounded=1;whiteSpace=wrap;html=1;fontSize=12;glass=0;strokeWidth=1;shadow=0;" parent="WIyWlLk6GJQsqaUBKTNV-1" vertex="1">
          <mxGeometry x="-580" y="800" width="120" height="40" as="geometry" />
        </mxCell>
        <mxCell id="5Jy3Hu0_u8CA1WoD8tqa-44" value="No" style="edgeStyle=orthogonalEdgeStyle;rounded=0;html=1;jettySize=auto;orthogonalLoop=1;fontSize=11;endArrow=block;endFill=0;endSize=8;strokeWidth=1;shadow=0;labelBackgroundColor=none;" parent="WIyWlLk6GJQsqaUBKTNV-1" source="5Jy3Hu0_u8CA1WoD8tqa-45" target="5Jy3Hu0_u8CA1WoD8tqa-46" edge="1">
          <mxGeometry y="10" relative="1" as="geometry">
            <mxPoint as="offset" />
          </mxGeometry>
        </mxCell>
        <mxCell id="5Jy3Hu0_u8CA1WoD8tqa-45" value="WHS Enable" style="rhombus;whiteSpace=wrap;html=1;shadow=0;fontFamily=Helvetica;fontSize=12;align=center;strokeWidth=1;spacing=6;spacingTop=-4;" parent="WIyWlLk6GJQsqaUBKTNV-1" vertex="1">
          <mxGeometry x="-730" y="900" width="100" height="80" as="geometry" />
        </mxCell>
        <mxCell id="5Jy3Hu0_u8CA1WoD8tqa-46" value="Not enter the loop" style="rounded=1;whiteSpace=wrap;html=1;fontSize=12;glass=0;strokeWidth=1;shadow=0;" parent="WIyWlLk6GJQsqaUBKTNV-1" vertex="1">
          <mxGeometry x="-580" y="920" width="120" height="40" as="geometry" />
        </mxCell>
        <mxCell id="5Jy3Hu0_u8CA1WoD8tqa-49" value="Interface" style="rounded=1;whiteSpace=wrap;html=1;fontSize=18;glass=0;strokeWidth=1;shadow=0;labelBackgroundColor=none;fillColor=#dae8fc;strokeColor=#6c8ebf;fontStyle=0" parent="WIyWlLk6GJQsqaUBKTNV-1" vertex="1">
          <mxGeometry x="-50" y="1100" width="120" height="40" as="geometry" />
        </mxCell>
        <mxCell id="5Jy3Hu0_u8CA1WoD8tqa-51" value="MES" style="rounded=1;whiteSpace=wrap;html=1;fontSize=18;glass=0;strokeWidth=1;shadow=0;labelBackgroundColor=none;fillColor=#eeeeee;strokeColor=#36393d;" parent="WIyWlLk6GJQsqaUBKTNV-1" vertex="1">
          <mxGeometry x="-306" y="1100" width="120" height="40" as="geometry" />
        </mxCell>
        <mxCell id="5Jy3Hu0_u8CA1WoD8tqa-53" value="Message" style="endArrow=classic;startArrow=classic;html=1;rounded=0;exitX=1;exitY=0.5;exitDx=0;exitDy=0;entryX=0;entryY=0.5;entryDx=0;entryDy=0;" parent="WIyWlLk6GJQsqaUBKTNV-1" source="5Jy3Hu0_u8CA1WoD8tqa-51" target="5Jy3Hu0_u8CA1WoD8tqa-49" edge="1">
          <mxGeometry width="50" height="50" relative="1" as="geometry">
            <mxPoint x="200" y="1110" as="sourcePoint" />
            <mxPoint x="250" y="1060" as="targetPoint" />
          </mxGeometry>
        </mxCell>
        <mxCell id="5Jy3Hu0_u8CA1WoD8tqa-55" value="Message" style="endArrow=classic;startArrow=classic;html=1;rounded=0;entryX=0;entryY=0.5;entryDx=0;entryDy=0;" parent="WIyWlLk6GJQsqaUBKTNV-1" source="5Jy3Hu0_u8CA1WoD8tqa-49" target="g9gUmK_ryA9LrA25yJjy-24" edge="1">
          <mxGeometry width="50" height="50" relative="1" as="geometry">
            <mxPoint x="200" y="1110" as="sourcePoint" />
            <mxPoint x="160" y="1120" as="targetPoint" />
          </mxGeometry>
        </mxCell>
        <mxCell id="5Jy3Hu0_u8CA1WoD8tqa-56" value="*Message Queue" style="text;html=1;align=center;verticalAlign=middle;whiteSpace=wrap;rounded=0;fontSize=13;" parent="WIyWlLk6GJQsqaUBKTNV-1" vertex="1">
          <mxGeometry x="-50" y="1070" width="120" height="30" as="geometry" />
        </mxCell>
        <mxCell id="5Jy3Hu0_u8CA1WoD8tqa-57" value="&amp;nbsp;MES&amp;nbsp;&lt;div&gt;DB&lt;/div&gt;" style="shape=cylinder3;whiteSpace=wrap;html=1;boundedLbl=1;backgroundOutline=1;size=15;" parent="WIyWlLk6GJQsqaUBKTNV-1" vertex="1">
          <mxGeometry x="-271" y="1180" width="50" height="70" as="geometry" />
        </mxCell>
        <mxCell id="xpyvUS707-2AnAHL2sLo-2" value="" style="edgeStyle=orthogonalEdgeStyle;rounded=0;orthogonalLoop=1;jettySize=auto;html=1;" parent="WIyWlLk6GJQsqaUBKTNV-1" source="xpyvUS707-2AnAHL2sLo-3" target="xpyvUS707-2AnAHL2sLo-4" edge="1">
          <mxGeometry relative="1" as="geometry" />
        </mxCell>
        <mxCell id="xpyvUS707-2AnAHL2sLo-3" value="agv_unload_node_search(Unload Node 확인)" style="text;html=1;align=center;verticalAlign=middle;whiteSpace=wrap;rounded=0;" parent="WIyWlLk6GJQsqaUBKTNV-1" vertex="1">
          <mxGeometry x="600" y="660" width="260" height="30" as="geometry" />
        </mxCell>
        <mxCell id="xpyvUS707-2AnAHL2sLo-4" value="P_UPDATE_WORK_STATUS" style="text;html=1;align=center;verticalAlign=middle;whiteSpace=wrap;rounded=0;" parent="WIyWlLk6GJQsqaUBKTNV-1" vertex="1">
          <mxGeometry x="940" y="660" width="260" height="30" as="geometry" />
        </mxCell>
        <mxCell id="g9gUmK_ryA9LrA25yJjy-9" value="HMX Scope" style="text;html=1;align=center;verticalAlign=middle;whiteSpace=wrap;rounded=0;fontSize=33;fontColor=#7d7d7d;" vertex="1" parent="WIyWlLk6GJQsqaUBKTNV-1">
          <mxGeometry x="450" y="1000" width="190" height="30" as="geometry" />
        </mxCell>
        <mxCell id="g9gUmK_ryA9LrA25yJjy-10" value="WCS Monitoring" style="rounded=1;whiteSpace=wrap;html=1;fontSize=15;glass=0;strokeWidth=1;shadow=0;labelBackgroundColor=none;fillColor=#dae8fc;strokeColor=#6c8ebf;fontStyle=0" vertex="1" parent="WIyWlLk6GJQsqaUBKTNV-1">
          <mxGeometry x="-130" y="1210" width="230" height="40" as="geometry" />
        </mxCell>
        <mxCell id="g9gUmK_ryA9LrA25yJjy-11" value="WMS" style="rounded=1;whiteSpace=wrap;html=1;fontSize=15;glass=0;strokeWidth=1;shadow=0;labelBackgroundColor=none;fillColor=#dae8fc;strokeColor=#6c8ebf;fontStyle=0" vertex="1" parent="WIyWlLk6GJQsqaUBKTNV-1">
          <mxGeometry x="-130" y="1260" width="230" height="45" as="geometry" />
        </mxCell>
        <mxCell id="g9gUmK_ryA9LrA25yJjy-14" value="Client #2" style="swimlane;whiteSpace=wrap;html=1;fontSize=20;fontStyle=1" vertex="1" parent="WIyWlLk6GJQsqaUBKTNV-1">
          <mxGeometry x="-140" y="1180" width="250" height="130" as="geometry" />
        </mxCell>
        <mxCell id="g9gUmK_ryA9LrA25yJjy-18" value="Server" style="swimlane;whiteSpace=wrap;html=1;fontSize=20;fontStyle=1" vertex="1" parent="WIyWlLk6GJQsqaUBKTNV-1">
          <mxGeometry x="130" y="1040" width="510" height="480" as="geometry" />
        </mxCell>
        <mxCell id="xpyvUS707-2AnAHL2sLo-8" value="Shmem" style="swimlane;fontStyle=0;childLayout=stackLayout;horizontal=1;startSize=30;horizontalStack=0;resizeParent=1;resizeParentMax=0;resizeLast=0;collapsible=1;marginBottom=0;whiteSpace=wrap;html=1;" parent="g9gUmK_ryA9LrA25yJjy-18" vertex="1">
          <mxGeometry x="340" y="184" width="115" height="120" as="geometry" />
        </mxCell>
        <mxCell id="xpyvUS707-2AnAHL2sLo-9" value="AGV &amp;amp; AGV Order&amp;nbsp;" style="text;strokeColor=none;fillColor=none;align=left;verticalAlign=middle;spacingLeft=4;spacingRight=4;overflow=hidden;points=[[0,0.5],[1,0.5]];portConstraint=eastwest;rotatable=0;whiteSpace=wrap;html=1;" parent="xpyvUS707-2AnAHL2sLo-8" vertex="1">
          <mxGeometry y="30" width="115" height="30" as="geometry" />
        </mxCell>
        <mxCell id="xpyvUS707-2AnAHL2sLo-10" value="STC&amp;nbsp; &amp;amp;STC Order" style="text;strokeColor=none;fillColor=none;align=left;verticalAlign=middle;spacingLeft=4;spacingRight=4;overflow=hidden;points=[[0,0.5],[1,0.5]];portConstraint=eastwest;rotatable=0;whiteSpace=wrap;html=1;" parent="xpyvUS707-2AnAHL2sLo-8" vertex="1">
          <mxGeometry y="60" width="115" height="30" as="geometry" />
        </mxCell>
        <mxCell id="xpyvUS707-2AnAHL2sLo-11" value="CNV &amp;amp; CNV Order" style="text;strokeColor=none;fillColor=none;align=left;verticalAlign=middle;spacingLeft=4;spacingRight=4;overflow=hidden;points=[[0,0.5],[1,0.5]];portConstraint=eastwest;rotatable=0;whiteSpace=wrap;html=1;" parent="xpyvUS707-2AnAHL2sLo-8" vertex="1">
          <mxGeometry y="90" width="115" height="30" as="geometry" />
        </mxCell>
        <mxCell id="5Jy3Hu0_u8CA1WoD8tqa-30" value="WCS" style="rounded=1;whiteSpace=wrap;html=1;fontSize=18;glass=0;strokeWidth=1;shadow=0;labelBackgroundColor=none;fillColor=#dae8fc;strokeColor=#6c8ebf;fontStyle=0" parent="g9gUmK_ryA9LrA25yJjy-18" vertex="1">
          <mxGeometry x="337.5" y="58" width="120" height="40" as="geometry" />
        </mxCell>
        <mxCell id="xpyvUS707-2AnAHL2sLo-17" value="" style="edgeStyle=orthogonalEdgeStyle;rounded=0;orthogonalLoop=1;jettySize=auto;html=1;exitX=0.5;exitY=0;exitDx=0;exitDy=0;entryX=0.5;entryY=1;entryDx=0;entryDy=0;" parent="g9gUmK_ryA9LrA25yJjy-18" source="xpyvUS707-2AnAHL2sLo-8" target="5Jy3Hu0_u8CA1WoD8tqa-30" edge="1">
          <mxGeometry relative="1" as="geometry" />
        </mxCell>
        <mxCell id="xpyvUS707-2AnAHL2sLo-5" value="VCS 통신&lt;div&gt;(p_cc_agv.exe)&lt;/div&gt;" style="rounded=1;whiteSpace=wrap;html=1;fontSize=12;glass=0;strokeWidth=1;shadow=0;" parent="g9gUmK_ryA9LrA25yJjy-18" vertex="1">
          <mxGeometry x="370" y="410" width="120" height="40" as="geometry" />
        </mxCell>
        <mxCell id="xpyvUS707-2AnAHL2sLo-18" value="[JSON]" style="text;html=1;align=center;verticalAlign=middle;whiteSpace=wrap;rounded=0;" parent="g9gUmK_ryA9LrA25yJjy-18" vertex="1">
          <mxGeometry x="-70" y="80" width="125" height="20" as="geometry" />
        </mxCell>
        <mxCell id="g9gUmK_ryA9LrA25yJjy-36" value="Webserver" style="rounded=1;whiteSpace=wrap;html=1;fontSize=12;glass=0;strokeWidth=1;shadow=0;fillColor=#eeeeee;strokeColor=#36393d;" vertex="1" parent="g9gUmK_ryA9LrA25yJjy-18">
          <mxGeometry x="60" y="240" width="90" height="40" as="geometry" />
        </mxCell>
        <mxCell id="g9gUmK_ryA9LrA25yJjy-48" value="REST API" style="endArrow=classic;startArrow=classic;html=1;rounded=0;entryX=0;entryY=0.5;entryDx=0;entryDy=0;" edge="1" parent="g9gUmK_ryA9LrA25yJjy-18" target="xpyvUS707-2AnAHL2sLo-10">
          <mxGeometry width="50" height="50" relative="1" as="geometry">
            <mxPoint x="150" y="260" as="sourcePoint" />
            <mxPoint x="230" y="180" as="targetPoint" />
          </mxGeometry>
        </mxCell>
        <mxCell id="g9gUmK_ryA9LrA25yJjy-24" value="WMS" style="rounded=1;whiteSpace=wrap;html=1;fontSize=18;glass=0;strokeWidth=1;shadow=0;labelBackgroundColor=none;fillColor=#dae8fc;strokeColor=#6c8ebf;fontStyle=0" vertex="1" parent="g9gUmK_ryA9LrA25yJjy-18">
          <mxGeometry x="45" y="58" width="120" height="40" as="geometry" />
        </mxCell>
        <mxCell id="g9gUmK_ryA9LrA25yJjy-50" value="REST API" style="endArrow=classic;startArrow=classic;html=1;rounded=0;entryX=0.5;entryY=1;entryDx=0;entryDy=0;exitX=0.5;exitY=0;exitDx=0;exitDy=0;" edge="1" parent="g9gUmK_ryA9LrA25yJjy-18" source="g9gUmK_ryA9LrA25yJjy-36" target="g9gUmK_ryA9LrA25yJjy-24">
          <mxGeometry width="50" height="50" relative="1" as="geometry">
            <mxPoint x="160" y="270" as="sourcePoint" />
            <mxPoint x="360" y="275" as="targetPoint" />
          </mxGeometry>
        </mxCell>
        <mxCell id="g9gUmK_ryA9LrA25yJjy-4" value="&amp;nbsp;WCS&amp;nbsp;&lt;div&gt;DB&lt;/div&gt;" style="shape=cylinder3;whiteSpace=wrap;html=1;boundedLbl=1;backgroundOutline=1;size=15;fillColor=#616161;fontColor=#ffffff;fontStyle=0;fontSize=15;" vertex="1" parent="g9gUmK_ryA9LrA25yJjy-18">
          <mxGeometry x="220" y="33" width="50" height="70" as="geometry" />
        </mxCell>
        <mxCell id="g9gUmK_ryA9LrA25yJjy-54" value="" style="endArrow=classic;startArrow=classic;html=1;rounded=0;entryX=0;entryY=0.5;entryDx=0;entryDy=0;exitX=1;exitY=0;exitDx=0;exitDy=45;exitPerimeter=0;" edge="1" parent="g9gUmK_ryA9LrA25yJjy-18" source="g9gUmK_ryA9LrA25yJjy-4" target="5Jy3Hu0_u8CA1WoD8tqa-30">
          <mxGeometry width="50" height="50" relative="1" as="geometry">
            <mxPoint x="180" y="260" as="sourcePoint" />
            <mxPoint x="230" y="210" as="targetPoint" />
          </mxGeometry>
        </mxCell>
        <mxCell id="g9gUmK_ryA9LrA25yJjy-55" value="" style="endArrow=classic;startArrow=classic;html=1;rounded=0;entryX=1;entryY=0.5;entryDx=0;entryDy=0;exitX=0;exitY=0;exitDx=0;exitDy=45;exitPerimeter=0;" edge="1" parent="g9gUmK_ryA9LrA25yJjy-18" source="g9gUmK_ryA9LrA25yJjy-4" target="g9gUmK_ryA9LrA25yJjy-24">
          <mxGeometry width="50" height="50" relative="1" as="geometry">
            <mxPoint x="294" y="135" as="sourcePoint" />
            <mxPoint x="348" y="80" as="targetPoint" />
          </mxGeometry>
        </mxCell>
        <mxCell id="g9gUmK_ryA9LrA25yJjy-27" value="[JSON]" style="text;html=1;align=center;verticalAlign=middle;whiteSpace=wrap;rounded=0;" vertex="1" parent="WIyWlLk6GJQsqaUBKTNV-1">
          <mxGeometry x="-175" y="1130" width="125" height="20" as="geometry" />
        </mxCell>
        <mxCell id="g9gUmK_ryA9LrA25yJjy-31" value="WCS Monitoring" style="rounded=1;whiteSpace=wrap;html=1;fontSize=15;glass=0;strokeWidth=1;shadow=0;labelBackgroundColor=none;fillColor=#dae8fc;strokeColor=#6c8ebf;fontStyle=0" vertex="1" parent="WIyWlLk6GJQsqaUBKTNV-1">
          <mxGeometry x="-130" y="1360" width="230" height="40" as="geometry" />
        </mxCell>
        <mxCell id="g9gUmK_ryA9LrA25yJjy-32" value="WMS" style="rounded=1;whiteSpace=wrap;html=1;fontSize=15;glass=0;strokeWidth=1;shadow=0;labelBackgroundColor=none;fillColor=#dae8fc;strokeColor=#6c8ebf;fontStyle=0" vertex="1" parent="WIyWlLk6GJQsqaUBKTNV-1">
          <mxGeometry x="-130" y="1410" width="230" height="45" as="geometry" />
        </mxCell>
        <mxCell id="g9gUmK_ryA9LrA25yJjy-33" value="Client #2" style="swimlane;whiteSpace=wrap;html=1;fontSize=20;fontStyle=1" vertex="1" parent="WIyWlLk6GJQsqaUBKTNV-1">
          <mxGeometry x="-140" y="1330" width="250" height="130" as="geometry" />
        </mxCell>
        <mxCell id="g9gUmK_ryA9LrA25yJjy-38" value="REST API&lt;span style=&quot;color: rgba(0, 0, 0, 0); font-family: monospace; font-size: 0px; text-align: start; background-color: rgb(251, 251, 251);&quot;&gt;%3CmxGraphModel%3E%3Croot%3E%3CmxCell%20id%3D%220%22%2F%3E%3CmxCell%20id%3D%221%22%20parent%3D%220%22%2F%3E%3CmxCell%20id%3D%222%22%20value%3D%22WCS%20%EC%A0%9C%EC%96%B4%26lt%3Bbr%26gt%3B(p_ar_ctrl.exe)%22%20style%3D%22rounded%3D1%3BwhiteSpace%3Dwrap%3Bhtml%3D1%3BfontSize%3D12%3Bglass%3D0%3BstrokeWidth%3D1%3Bshadow%3D0%3B%22%20vertex%3D%221%22%20parent%3D%221%22%3E%3CmxGeometry%20x%3D%22160%22%20y%3D%221335%22%20width%3D%22120%22%20height%3D%2240%22%20as%3D%22geometry%22%2F%3E%3C%2FmxCell%3E%3C%2Froot%3E%3C%2FmxGraphModel%3E&lt;/span&gt;" style="endArrow=classic;startArrow=classic;html=1;rounded=0;exitX=0;exitY=0.5;exitDx=0;exitDy=0;" edge="1" parent="WIyWlLk6GJQsqaUBKTNV-1" source="g9gUmK_ryA9LrA25yJjy-36">
          <mxGeometry width="50" height="50" relative="1" as="geometry">
            <mxPoint x="310" y="1350" as="sourcePoint" />
            <mxPoint x="110" y="1260" as="targetPoint" />
          </mxGeometry>
        </mxCell>
        <mxCell id="g9gUmK_ryA9LrA25yJjy-47" style="edgeStyle=orthogonalEdgeStyle;rounded=0;orthogonalLoop=1;jettySize=auto;html=1;exitX=0.5;exitY=0;exitDx=0;exitDy=0;" edge="1" parent="WIyWlLk6GJQsqaUBKTNV-1" source="g9gUmK_ryA9LrA25yJjy-45" target="xpyvUS707-2AnAHL2sLo-11">
          <mxGeometry relative="1" as="geometry">
            <Array as="points">
              <mxPoint x="430" y="1380" />
              <mxPoint x="527" y="1380" />
            </Array>
          </mxGeometry>
        </mxCell>
        <mxCell id="g9gUmK_ryA9LrA25yJjy-45" value="Communication" style="swimlane;whiteSpace=wrap;html=1;fillColor=#FCFFD6;strokeColor=#36393d;" vertex="1" parent="WIyWlLk6GJQsqaUBKTNV-1">
          <mxGeometry x="230" y="1420" width="400" height="80" as="geometry" />
        </mxCell>
        <mxCell id="g9gUmK_ryA9LrA25yJjy-2" value="PLC 통신&lt;div&gt;(p_cc_plccm.exe)&lt;/div&gt;" style="rounded=1;whiteSpace=wrap;html=1;fontSize=12;glass=0;strokeWidth=1;shadow=0;" vertex="1" parent="g9gUmK_ryA9LrA25yJjy-45">
          <mxGeometry x="10" y="30" width="120" height="40" as="geometry" />
        </mxCell>
        <mxCell id="g9gUmK_ryA9LrA25yJjy-0" value="STC 통신&lt;span style=&quot;background-color: initial;&quot;&gt;(p_cc_stc.exe)&lt;/span&gt;" style="rounded=1;whiteSpace=wrap;html=1;fontSize=12;glass=0;strokeWidth=1;shadow=0;" vertex="1" parent="g9gUmK_ryA9LrA25yJjy-45">
          <mxGeometry x="140" y="30" width="120" height="40" as="geometry" />
        </mxCell>
        <mxCell id="g9gUmK_ryA9LrA25yJjy-39" value="REST API&lt;span style=&quot;color: rgba(0, 0, 0, 0); font-family: monospace; font-size: 0px; text-align: start; background-color: rgb(251, 251, 251);&quot;&gt;%3CmxGraphModel%3E%3Croot%3E%3CmxCell%20id%3D%220%22%2F%3E%3CmxCell%20id%3D%221%22%20parent%3D%220%22%2F%3E%3CmxCell%20id%3D%222%22%20value%3D%22WCS%20%EC%A0%9C%EC%96%B4%26lt%3Bbr%26gt%3B(p_ar_ctrl.exe)%22%20style%3D%22rounded%3D1%3BwhiteSpace%3Dwrap%3Bhtml%3D1%3BfontSize%3D12%3Bglass%3D0%3BstrokeWidth%3D1%3Bshadow%3D0%3B%22%20vertex%3D%221%22%20parent%3D%221%22%3E%3CmxGeometry%20x%3D%22160%22%20y%3D%221335%22%20width%3D%22120%22%20height%3D%2240%22%20as%3D%22geometry%22%2F%3E%3C%2FmxCell%3E%3C%2Froot%3E%3C%2FmxGraphModel%3E&lt;/span&gt;" style="endArrow=classic;startArrow=classic;html=1;rounded=0;exitX=0;exitY=0.5;exitDx=0;exitDy=0;" edge="1" parent="WIyWlLk6GJQsqaUBKTNV-1" source="g9gUmK_ryA9LrA25yJjy-36">
          <mxGeometry width="50" height="50" relative="1" as="geometry">
            <mxPoint x="200" y="1320" as="sourcePoint" />
            <mxPoint x="110" y="1400" as="targetPoint" />
          </mxGeometry>
        </mxCell>
        <mxCell id="g9gUmK_ryA9LrA25yJjy-40" value="&lt;font style=&quot;font-size: 20px;&quot;&gt;&lt;b&gt;.&lt;/b&gt;&lt;/font&gt;&lt;div&gt;&lt;font style=&quot;font-size: 20px;&quot;&gt;&lt;b&gt;.&lt;/b&gt;&lt;/font&gt;&lt;/div&gt;&lt;div&gt;&lt;font style=&quot;font-size: 20px;&quot;&gt;&lt;b&gt;.&lt;/b&gt;&lt;/font&gt;&lt;/div&gt;&lt;div&gt;&lt;br&gt;&lt;/div&gt;&lt;div&gt;&lt;br&gt;&lt;/div&gt;" style="text;html=1;align=center;verticalAlign=middle;whiteSpace=wrap;rounded=0;" vertex="1" parent="WIyWlLk6GJQsqaUBKTNV-1">
          <mxGeometry x="-61" y="1495" width="60" height="30" as="geometry" />
        </mxCell>
        <mxCell id="g9gUmK_ryA9LrA25yJjy-49" value="* WMS : WCS Management" style="text;html=1;align=left;verticalAlign=middle;whiteSpace=wrap;rounded=0;fontSize=15;fontStyle=0;fontColor=#8c8c8c;" vertex="1" parent="WIyWlLk6GJQsqaUBKTNV-1">
          <mxGeometry x="-160" y="1540" width="280" height="30" as="geometry" />
        </mxCell>
        <mxCell id="g9gUmK_ryA9LrA25yJjy-57" value="VCS" style="rounded=1;whiteSpace=wrap;html=1;fontSize=18;glass=0;strokeWidth=1;shadow=0;labelBackgroundColor=none;fillColor=#eeeeee;strokeColor=#36393d;" vertex="1" parent="WIyWlLk6GJQsqaUBKTNV-1">
          <mxGeometry x="662" y="1450" width="120" height="40" as="geometry" />
        </mxCell>
        <mxCell id="g9gUmK_ryA9LrA25yJjy-59" value="" style="endArrow=classic;startArrow=classic;html=1;rounded=0;entryX=0;entryY=0.5;entryDx=0;entryDy=0;exitX=1;exitY=0.5;exitDx=0;exitDy=0;" edge="1" parent="WIyWlLk6GJQsqaUBKTNV-1" source="xpyvUS707-2AnAHL2sLo-5" target="g9gUmK_ryA9LrA25yJjy-57">
          <mxGeometry width="50" height="50" relative="1" as="geometry">
            <mxPoint x="420" y="1175" as="sourcePoint" />
            <mxPoint x="478" y="1130" as="targetPoint" />
          </mxGeometry>
        </mxCell>
        <mxCell id="g9gUmK_ryA9LrA25yJjy-67" value="" style="endArrow=classic;startArrow=classic;html=1;rounded=0;entryX=0.5;entryY=0;entryDx=0;entryDy=0;exitX=0.5;exitY=1;exitDx=0;exitDy=0;entryPerimeter=0;" edge="1" parent="WIyWlLk6GJQsqaUBKTNV-1" source="5Jy3Hu0_u8CA1WoD8tqa-51" target="5Jy3Hu0_u8CA1WoD8tqa-57">
          <mxGeometry width="50" height="50" relative="1" as="geometry">
            <mxPoint x="360" y="1128" as="sourcePoint" />
            <mxPoint x="305" y="1128" as="targetPoint" />
          </mxGeometry>
        </mxCell>
      </root>
    </mxGraphModel>
  </diagram>
</mxfile>
